<svg width="141" height="141" viewBox="0 0 141 141" fill="none" xmlns="http://www.w3.org/2000/svg">
    <path d="M17.9004 25.0605H4.13086C1.84952 25.0605 0 23.211 0 20.9297C0 18.6484 1.84952 16.7988 4.13086 16.7988H17.9004C20.1817 16.7988 22.0312 18.6484 22.0312 20.9297C22.0312 23.211 20.1817 25.0605 17.9004 25.0605Z" fill="#51FAFF"/>
    <path d="M15.1465 41.584H4.13086C1.84952 41.584 0 39.7345 0 37.4531C0 35.1718 1.84952 33.3223 4.13086 33.3223H15.1465C17.4278 33.3223 19.2773 35.1718 19.2773 37.4531C19.2773 39.7345 17.4278 41.584 15.1465 41.584Z" fill="#51FAFF"/>
    <path d="M37.1777 25.0605H31.6699C29.3886 25.0605 27.5391 23.211 27.5391 20.9297C27.5391 18.6484 29.3886 16.7988 31.6699 16.7988H37.1777C39.4591 16.7988 41.3086 18.6484 41.3086 20.9297C41.3086 23.211 39.4591 25.0605 37.1777 25.0605Z" fill="#51FAFF"/>
    <path d="M136.457 70.8307C133.527 67.1785 129.397 64.608 124.826 63.5924L114.401 61.2755L98.2395 41.074C94.2984 36.1475 88.4197 33.3223 82.111 33.3223H42.8568C34.3621 33.3223 26.8346 38.4186 23.6797 46.3058L17.5303 61.6792L12.2397 63.4428C4.91875 65.8831 0 72.7075 0 80.4245V103.547C0 105.828 1.84952 107.678 4.13086 107.678H136.869C139.15 107.678 141 105.828 141 103.547V83.7546C141 79.0726 139.387 74.4827 136.457 70.8307Z" fill="#FF641A"/>
    <path d="M124.826 63.5924L114.401 61.2755L98.2395 41.074C94.2984 36.1475 88.4197 33.3223 82.111 33.3223H65.2676V107.678H136.869C139.15 107.678 141 105.828 141 103.547V83.7546C141 79.0726 139.387 74.4827 136.457 70.8305C133.527 67.1785 129.397 64.6077 124.826 63.5924Z" fill="#FF1F3D"/>
    <path d="M31.3508 49.3742C33.2435 44.6419 37.7599 41.584 42.8568 41.584H61.1367V60.8613H26.7559L31.3508 49.3742Z" fill="#51FAFF"/>
    <path d="M69.3984 60.8613V41.584H82.111C85.8963 41.584 89.4235 43.2793 91.7882 46.2351L103.489 60.8613H69.3984Z" fill="#00C0F1"/>
    <path d="M106.576 124.201C117.983 124.201 127.23 114.954 127.23 103.547C127.23 92.1398 117.983 82.8926 106.576 82.8926C95.1691 82.8926 85.9219 92.1398 85.9219 103.547C85.9219 114.954 95.1691 124.201 106.576 124.201Z" fill="#00607F"/>
    <path d="M106.576 82.8926V124.201C117.965 124.201 127.23 114.936 127.23 103.547C127.23 92.1581 117.965 82.8926 106.576 82.8926Z" fill="#08475E"/>
    <path d="M106.576 113.186C111.899 113.186 116.215 108.87 116.215 103.547C116.215 98.2236 111.899 93.9082 106.576 93.9082C101.253 93.9082 96.9375 98.2236 96.9375 103.547C96.9375 108.87 101.253 113.186 106.576 113.186Z" fill="#F9F9F9"/>
    <path d="M106.576 93.9082V113.186C111.891 113.186 116.215 108.862 116.215 103.547C116.215 98.2321 111.891 93.9082 106.576 93.9082Z" fill="#E2DFF4"/>
    <path d="M34.4238 124.201C45.8309 124.201 55.0781 114.954 55.0781 103.547C55.0781 92.1398 45.8309 82.8926 34.4238 82.8926C23.0168 82.8926 13.7695 92.1398 13.7695 103.547C13.7695 114.954 23.0168 124.201 34.4238 124.201Z" fill="#00607F"/>
    <path d="M34.4238 82.8926V124.201C45.8126 124.201 55.0781 114.936 55.0781 103.547C55.0781 92.1581 45.8126 82.8926 34.4238 82.8926Z" fill="#08475E"/>
    <path d="M34.4238 113.186C39.7471 113.186 44.0625 108.87 44.0625 103.547C44.0625 98.2236 39.7471 93.9082 34.4238 93.9082C29.1005 93.9082 24.7852 98.2236 24.7852 103.547C24.7852 108.87 29.1005 113.186 34.4238 113.186Z" fill="#F9F9F9"/>
    <path d="M34.4238 93.9082V113.186C39.7386 113.186 44.0625 108.862 44.0625 103.547C44.0625 98.2321 39.7386 93.9082 34.4238 93.9082Z" fill="#E2DFF4"/>
</svg>
