<svg width="207" height="49" viewBox="0 0 207 49" fill="none" xmlns="http://www.w3.org/2000/svg">
    <g clip-path="url(#clip0_446_1717)">
        <path d="M206.797 1.75662C206.797 0.425518 206.527 0 205.106 0C137.288 0.0400059 69.4706 0.0400059 1.65303 0C0.356537 0 0 0.354598 0 1.66388C0.0504193 16.8807 0.0504193 32.0957 0 47.3088C0 48.7709 0.46998 49 1.76648 48.9945C17.9187 48.9509 34.0727 48.9509 50.2284 48.9945H103.423C137.312 48.9945 171.197 49.0055 205.079 49.0273C206.462 49.0273 206.802 48.6727 206.797 47.2925C206.75 32.1048 206.75 16.9261 206.797 1.75662ZM45.291 47.2434C38.2683 47.1943 31.2456 47.2434 24.2229 47.2434C17.2002 47.2434 10.1775 47.2434 3.15481 47.2434C2.05819 47.2488 1.62062 47.0524 1.62062 45.7759C1.67464 31.5665 1.67464 17.3517 1.62062 3.13137C1.62062 1.99666 1.93934 1.67479 3.05757 1.68025C17.1462 1.71298 31.233 1.71298 45.318 1.68025C46.4794 1.68025 46.7279 2.08395 46.7279 3.16956C46.6955 17.3862 46.6955 31.6011 46.7279 45.8141C46.7441 46.9761 46.393 47.2488 45.291 47.2434ZM79.6535 34.6961C77.2415 36.7345 74.1501 37.7666 71.0102 37.5819C60.3789 37.6419 55.2848 27.3695 59.4606 19.0937C61.9023 14.2385 66.2888 12.3673 71.545 12.4437C74.7274 12.4065 77.8043 13.5944 80.1505 15.766C80.8312 16.3988 81.1067 16.9552 80.1505 17.5662C80.0387 17.6442 79.9339 17.7318 79.8372 17.8281C79.1025 18.4882 78.4597 19.4647 77.6007 19.7266C76.7418 19.9884 76.1422 18.7555 75.3481 18.2864C72.0042 16.3115 67.4556 17.1298 65.1436 20.2012C64.006 21.8244 63.4848 23.8068 63.6752 25.786C63.8657 27.7653 64.755 29.6093 66.1808 30.981C68.9574 33.485 73.8139 33.4413 76.5473 30.7737C77.309 30.0263 77.7574 30.1026 78.384 30.7737C78.8054 31.2374 79.2862 31.6574 79.74 32.0939C81.1121 33.4086 81.1391 33.4359 79.6535 34.6852V34.6961ZM99.5926 37.271C98.9173 37.2273 98.242 37.271 97.5668 37.271C95.7247 37.271 95.7247 37.271 95.5194 35.3071C92.5158 37.8874 88.5993 38.242 85.558 36.3218C83.6673 35.1325 82.9866 33.365 83.1487 31.2155C83.3053 29.2025 84.4343 27.8769 86.1954 27.0586C87.789 26.3221 89.5231 26.333 91.2194 26.213C92.0729 26.153 92.9264 26.213 93.7853 26.213C95.406 26.213 95.6815 25.7165 94.8657 24.2927C94.6102 23.8332 94.2472 23.4438 93.8084 23.1585C93.3696 22.8733 92.8684 22.7008 92.3484 22.6561C90.2956 22.4379 88.2806 22.6015 86.5087 23.7853C85.7849 24.2654 85.504 24.0308 85.2447 23.3489C85.0873 22.9742 84.9069 22.6098 84.7045 22.2578C83.6835 20.3212 83.6727 20.2885 85.7363 19.432C89.1342 18.0245 92.6293 17.7135 96.1298 18.9683C99.0902 20.0266 100.516 22.3997 100.646 25.4547C100.792 29.0389 100.689 32.6285 100.738 36.2181C100.732 37.0637 100.376 37.3092 99.5926 37.2601V37.271ZM116.955 22.8579C116.485 23.5726 115.539 23.0707 114.794 23.1962C113.753 23.3204 112.792 23.826 112.095 24.6173C111.399 25.4086 111.013 26.4305 111.013 27.4895C110.899 30.2554 110.91 33.0267 110.959 35.7871C110.959 36.8782 110.715 37.3801 109.543 37.271C108.513 37.2001 107.478 37.2001 106.448 37.271C105.724 37.271 105.529 36.9982 105.535 36.3108C105.556 30.6882 105.556 25.0655 105.535 19.4429C105.535 18.63 105.854 18.4173 106.577 18.4664C107.301 18.5155 107.928 18.4664 108.598 18.4664C110.64 18.4664 110.64 18.4664 110.759 20.6485C112.148 19.2647 113.969 18.4106 115.912 18.2318C116.798 18.1718 117.182 18.4336 117.095 19.3229C117.063 19.6829 117.095 20.0484 117.095 20.4139C117.068 21.2759 117.392 22.1869 116.955 22.8579ZM140.924 24.9092C139.714 28.1824 136.197 30.3645 131.919 30.4682C130.298 30.5118 128.677 30.5009 127.057 30.4682C126.36 30.4682 126.106 30.7136 126.122 31.4228C126.155 33.0595 126.122 34.6961 126.122 36.3327C126.122 37.0419 125.884 37.2983 125.188 37.2764C124.021 37.2328 122.843 37.211 121.682 37.2764C120.747 37.331 120.553 36.9273 120.563 36.0763C120.596 32.4048 120.563 28.7279 120.563 25.051C120.563 21.3741 120.563 17.7026 120.563 14.0257C120.563 13.3711 120.493 12.7492 121.482 12.7764C125.522 12.9128 129.585 12.52 133.604 13.0547C139.654 13.8511 142.993 19.3174 140.924 24.9092ZM153.889 37.5438C148.017 37.5492 143.695 33.4359 143.695 27.8769C143.695 22.2251 147.871 18.2373 153.829 18.2318C159.788 18.2263 163.985 22.116 163.996 27.8114C164.007 33.5068 159.755 37.5328 153.883 37.5438H153.889ZM176.313 37.5438C170.408 37.4619 166.243 33.3813 166.287 27.7241C166.33 22.0669 170.608 18.1936 176.842 18.2373C182.52 18.2809 186.625 22.3888 186.566 27.9805C186.506 33.5723 182.174 37.6419 176.307 37.5383L176.313 37.5438ZM194.275 37.2655C192.984 37.1564 191.341 37.8111 190.493 37.0146C189.645 36.2181 190.212 34.5269 190.191 33.234C190.147 30.239 190.191 27.2331 190.191 24.2491C190.191 20.3921 190.218 16.5297 190.191 12.6728C190.191 11.7454 190.412 11.358 191.385 11.429C192.417 11.4971 193.453 11.4971 194.485 11.429C195.29 11.3853 195.593 11.6417 195.566 12.52C195.537 20.3685 195.537 28.2206 195.566 36.0763C195.555 37.0528 195.166 37.3365 194.269 37.2601L194.275 37.2655Z" fill="#EC5F5F"/>
        <path d="M132.605 17.6372C131.86 17.46 131.094 17.3903 130.33 17.4299C128.996 17.4954 127.284 16.8844 126.425 17.6754C125.566 18.4664 126.29 20.2503 126.138 21.3523C126.138 22.7216 126.138 23.8563 126.138 24.991C126.138 25.4929 126.209 25.9075 126.846 25.8857C128.812 25.8148 130.806 26.1257 132.75 25.6184C134.83 25.0729 135.862 23.6763 135.824 21.576C135.786 19.4757 134.695 18.1664 132.605 17.6372Z" fill="#EC5F5F"/>
        <path d="M153.856 22.6343C151.036 22.6343 149.113 24.8164 149.124 27.9314C149.124 30.9428 151.107 33.0267 153.916 33.0104C156.725 32.994 158.578 30.9046 158.556 27.8114C158.535 24.7182 156.606 22.6343 153.856 22.6343Z" fill="#EC5F5F"/>
        <path d="M176.518 22.6395C173.763 22.5904 171.748 24.7289 171.71 27.7239C171.678 30.8771 173.574 33.0047 176.437 33.0101C179.203 33.0101 181.121 30.9916 181.169 28.0185C181.218 24.8653 179.349 22.6886 176.518 22.6395Z" fill="#EC5F5F"/>
        <path d="M94.7901 29.4206C93.1695 29.4206 91.5489 29.2242 89.9769 29.5952C89.5287 29.6727 89.1214 29.906 88.8255 30.2546C88.5296 30.6033 88.3636 31.0454 88.3563 31.5045C88.313 32.5138 88.8965 33.1411 89.8148 33.5612C90.3203 33.7434 90.856 33.8249 91.3922 33.8012C93.7961 33.8012 95.5356 32.1646 95.3357 30.1898C95.2925 29.8079 95.2817 29.4151 94.7901 29.4206Z" fill="#EC5F5F"/>
        <path d="M32.1639 17.4573C32.2556 17.4573 32.3435 17.494 32.4084 17.5595C32.4732 17.625 32.5096 17.7138 32.5096 17.8064V18.1665C32.5096 18.712 31.8668 18.8593 31.386 18.8593L30.6351 17.4573H32.1639ZM31.1645 19.9122C31.6052 20.6926 31.8309 21.5779 31.8182 22.4762C31.7805 23.446 31.5431 24.3973 31.1213 25.2693V26.5623C31.1235 26.6558 31.107 26.7488 31.0729 26.8358C31.0388 26.9228 30.9877 27.0019 30.9227 27.0686C30.8577 27.1353 30.7801 27.188 30.6945 27.2238C30.6089 27.2596 30.5171 27.2777 30.4244 27.2769H29.3872C29.296 27.2776 29.2055 27.2601 29.121 27.2253C29.0364 27.1906 28.9596 27.1392 28.8948 27.0743C28.83 27.0094 28.7786 26.9322 28.7435 26.8471C28.7084 26.762 28.6904 26.6708 28.6904 26.5786V25.864H19.6743V26.5623C19.6765 26.6558 19.66 26.7488 19.6259 26.8358C19.5918 26.9228 19.5407 27.0019 19.4757 27.0686C19.4107 27.1353 19.3331 27.188 19.2475 27.2238C19.1619 27.2596 19.0701 27.2777 18.9775 27.2769H17.9403C17.849 27.2776 17.7585 27.2601 17.674 27.2253C17.5895 27.1906 17.5126 27.1392 17.4478 27.0743C17.383 27.0094 17.3316 26.9322 17.2965 26.8471C17.2614 26.762 17.2434 26.6708 17.2434 26.5786V25.2693C16.8216 24.3973 16.5842 23.446 16.5465 22.4762C16.5363 21.5758 16.7638 20.6889 17.2056 19.9067C17.7782 18.8156 18.4859 17.49 19.2367 16.2298C19.8094 15.2588 20.1119 15.0351 20.8142 14.9042C21.9275 14.7132 23.056 14.6273 24.185 14.6478C25.3123 14.6273 26.439 14.7132 27.5505 14.9042C28.2528 15.0351 28.5553 15.2588 29.1279 16.2298C29.8788 17.49 30.5865 18.832 31.1645 19.9122ZM20.0201 22.007C20.0201 21.7988 19.9589 21.5952 19.8443 21.4221C19.7298 21.2489 19.5669 21.114 19.3764 21.0343C19.1859 20.9546 18.9763 20.9338 18.774 20.9744C18.5718 21.015 18.386 21.1153 18.2402 21.2625C18.0944 21.4098 17.9951 21.5974 17.9549 21.8016C17.9147 22.0059 17.9353 22.2176 18.0142 22.41C18.0931 22.6023 18.2268 22.7668 18.3982 22.8825C18.5697 22.9982 18.7712 23.0599 18.9775 23.0599C19.254 23.0599 19.5192 22.949 19.7147 22.7515C19.9102 22.5541 20.0201 22.2863 20.0201 22.007ZM26.9563 22.7108C26.957 22.6645 26.9486 22.6185 26.9316 22.5755C26.9145 22.5325 26.8891 22.4934 26.857 22.4604C26.8248 22.4274 26.7864 22.4011 26.7441 22.3833C26.7018 22.3654 26.6564 22.3562 26.6106 22.3562H21.7487C21.6638 22.3669 21.5856 22.4085 21.529 22.4733C21.4723 22.5381 21.441 22.6216 21.441 22.708C21.441 22.7945 21.4723 22.878 21.529 22.9427C21.5856 23.0075 21.6638 23.0492 21.7487 23.0599H26.6106C26.7023 23.0599 26.7902 23.0231 26.855 22.9577C26.9199 22.8922 26.9563 22.8034 26.9563 22.7108ZM28.9983 18.8375C28.6853 18.0784 28.3075 17.3483 27.8693 16.6553C27.7998 16.5515 27.7105 16.4628 27.6066 16.3944C27.5027 16.326 27.3863 16.2793 27.2642 16.2571C26.2479 16.0761 25.217 15.9921 24.185 16.0061C23.1513 15.9919 22.1186 16.0759 21.1005 16.2571C20.9794 16.28 20.864 16.327 20.761 16.3954C20.6581 16.4638 20.5696 16.5521 20.5008 16.6553C20.0596 17.3474 19.6799 18.0777 19.3664 18.8375C20.9605 19.0862 22.5722 19.2012 24.185 19.1812C25.7961 19.2012 27.406 19.0862 28.9983 18.8375ZM30.4298 22.007C30.4298 21.7988 30.3687 21.5952 30.2541 21.4221C30.1396 21.2489 29.9767 21.114 29.7862 21.0343C29.5957 20.9546 29.3861 20.9338 29.1838 20.9744C28.9816 21.015 28.7958 21.1153 28.65 21.2625C28.5042 21.4098 28.4049 21.5974 28.3647 21.8016C28.3244 22.0059 28.3451 22.2176 28.424 22.41C28.5029 22.6023 28.6365 22.7668 28.808 22.8825C28.9795 22.9982 29.181 23.0599 29.3872 23.0599C29.6633 23.0585 29.9277 22.9471 30.1229 22.7499C30.3181 22.5528 30.4284 22.2858 30.4298 22.007ZM17.7296 17.4573H16.2062C16.114 17.4573 16.0255 17.4939 15.9598 17.5592C15.8941 17.6245 15.8565 17.7133 15.8551 17.8064V18.1665C15.8551 18.712 16.4979 18.8593 16.9787 18.8593L17.7296 17.4573ZM24.2121 7.63763C22.4039 7.61674 20.6094 7.9563 18.9313 8.63683C17.2533 9.31737 15.7247 10.3255 14.433 11.6036C13.1414 12.8816 12.1121 14.4044 11.4041 16.0847C10.6961 17.7651 10.3234 19.57 10.3071 21.396C10.3071 29.1099 16.3791 34.3852 24.185 41.2753C31.991 34.3689 38.0576 29.1099 38.0576 21.396C38.0413 19.5728 37.6696 17.7706 36.9636 16.0924C36.2577 14.4142 35.2313 12.8928 33.9431 11.6152C32.6549 10.3376 31.1301 9.32879 29.4558 8.64631C27.7815 7.96382 25.9905 7.62107 24.185 7.63763H24.2121ZM24.2121 32.8632C22.0151 32.8686 19.8659 32.2155 18.0366 30.9867C16.2074 29.7579 14.7803 28.0086 13.9361 25.9603C13.0919 23.9119 12.8685 21.6567 13.2942 19.4801C13.7199 17.3035 14.7756 15.3034 16.3276 13.733C17.8796 12.1626 19.8581 11.0926 22.0127 10.6585C24.1672 10.2243 26.4008 10.4455 28.4308 11.294C30.4608 12.1426 32.1958 13.5803 33.4161 15.4252C34.6365 17.2701 35.2874 19.4392 35.2863 21.6579C35.2863 24.6312 34.1167 27.4827 32.0348 29.5851C29.9529 31.6875 27.1293 32.8686 24.185 32.8686L24.2121 32.8632Z" fill="#282828"/>
    </g>
    <defs>
        <clipPath id="clip0_446_1717"             >
            <rect width="206.797" height="49" fill="white"/>
        </clipPath>
    </defs>
</svg>
